<?xml version="1.0" encoding="iso-8859-1"?>
<!-- Generator: Adobe Illustrator 16.0.0, SVG Export Plug-In . SVG Version: 6.00 Build 0)  -->
<!DOCTYPE svg PUBLIC "-//W3C//DTD SVG 1.1//EN" "http://www.w3.org/Graphics/SVG/1.1/DTD/svg11.dtd">
<svg version="1.1" id="Capa_1" xmlns="http://www.w3.org/2000/svg" xmlns:xlink="http://www.w3.org/1999/xlink" x="0px" y="0px"
	 width="28.609px" height="28.609px" viewBox="0 0 28.609 28.609" style="enable-background:new 0 0 28.609 28.609;"
	 xml:space="preserve" fill="#cc3426">
<g>
	<g>
		<polygon points="23.138,18.338 23.138,16.457 14.304,6.065 5.47,16.457 5.47,18.338 8.835,18.338 8.835,17.695 14.304,11.261 
			19.773,17.695 19.773,18.338 		"/>
		<polygon points="19.773,24.648 8.835,24.648 8.835,23.387 5.47,23.387 5.47,28.014 23.138,28.014 23.138,23.387 19.773,23.387 		
			"/>
		<polygon points="17.669,18.338 17.669,16.52 15.145,13.55 15.145,18.338 		"/>
		<polygon points="10.097,19.18 3.367,19.18 3.367,12.226 8.835,5.791 11.133,8.494 13.341,5.897 8.835,0.596 0,10.989 0,22.545 
			10.097,22.545 		"/>
		<polygon points="19.773,0.596 15.268,5.897 17.474,8.494 19.773,5.791 25.242,12.226 25.242,19.18 14.304,19.18 14.304,12.561 
			10.938,16.52 10.938,22.545 28.609,22.545 28.609,10.989 		"/>
	</g>
</g>
<g>
</g>
<g>
</g>
<g>
</g>
<g>
</g>
<g>
</g>
<g>
</g>
<g>
</g>
<g>
</g>
<g>
</g>
<g>
</g>
<g>
</g>
<g>
</g>
<g>
</g>
<g>
</g>
<g>
</g>
</svg>
